<svg xmlns="http://www.w3.org/2000/svg" viewBox="0 0 1200 675" role="img" aria-labelledby="title desc">
  <title id="title">클라우드 작업 공간</title>
  <desc id="desc">개인 파일과 문서 작업이 권한을 거쳐 클라우드 서비스에 연결되는 구조</desc>
  <defs><linearGradient id="bg" x2="1" y2="1"><stop stop-color="#eef5ff"/><stop offset="1" stop-color="#e7f7f1"/></linearGradient><filter id="s"><feDropShadow dy="15" stdDeviation="20" flood-color="#416c61" flood-opacity=".15"/></filter></defs>
  <rect width="1200" height="675" rx="34" fill="url(#bg)"/>
  <g filter="url(#s)"><rect x="105" y="178" width="254" height="319" rx="30" fill="#fff"/><rect x="841" y="178" width="254" height="319" rx="30" fill="#fff"/><path d="M473 397c-66 0-100-39-100-87 0-45 32-82 75-86 18-66 74-111 143-111 76 0 138 55 150 126 50 5 88 46 88 98 0 58-44 105-108 105H473z" fill="#0759ed"/></g>
  <g fill="none" stroke-linecap="round" stroke-linejoin="round"><g stroke="#0759ed" stroke-width="8"><path d="M163 243h138M163 282h104M163 321h124"/><path d="M170 397h120v56H170z"/></g><g stroke="#fff" stroke-width="9"><circle cx="600" cy="309" r="62"/><path d="M600 276v66M567 309h66"/></g><g stroke="#157a53" stroke-width="8"><path d="M900 233h132M900 271h93M900 309h116"/><path d="m913 407 28 28 62-68"/></g><path d="M359 337h95M746 337h95" stroke="#75a9a2" stroke-width="5" stroke-dasharray="10 11"/></g>
</svg>
