<svg xmlns="http://www.w3.org/2000/svg" viewBox="0 0 1200 675" role="img" aria-labelledby="title desc">
  <title id="title">원본 데이터 대조</title>
  <desc id="desc">측정 데이터와 생성 결과를 대조해 일치 여부를 확인하는 장면</desc>
  <defs><linearGradient id="bg" x2="1" y2="1"><stop stop-color="#f3f8ff"/><stop offset="1" stop-color="#e3f4ee"/></linearGradient><filter id="s"><feDropShadow dy="14" stdDeviation="18" flood-color="#326151" flood-opacity=".14"/></filter></defs>
  <rect width="1200" height="675" rx="34" fill="url(#bg)"/>
  <g filter="url(#s)"><rect x="92" y="92" width="430" height="491" rx="28" fill="#fff"/><rect x="678" y="92" width="430" height="491" rx="28" fill="#fff"/></g>
  <g fill="#dcecff"><rect x="126" y="133" width="362" height="54" rx="10"/><rect x="712" y="133" width="362" height="54" rx="10"/></g>
  <g fill="none" stroke="#8ba7cc" stroke-width="3"><path d="M126 238h362M126 302h362M126 366h362M126 430h362M126 494h362M712 238h362M712 302h362M712 366h362M712 430h362M712 494h362"/><path d="M252 207v327M378 207v327M838 207v327M964 207v327" opacity=".55"/></g>
  <g fill="#0759ed"><rect x="137" y="316" width="105" height="36" rx="8" opacity=".14"/><rect x="722" y="316" width="105" height="36" rx="8" opacity=".14"/></g>
  <circle cx="600" cy="338" r="72" fill="#157a53"/><path d="m565 338 23 24 48-54" fill="none" stroke="#fff" stroke-width="14" stroke-linecap="round" stroke-linejoin="round"/>
  <path d="M522 338h-43M678 338h43" stroke="#157a53" stroke-width="6" stroke-linecap="round"/>
</svg>
