<svg xmlns="http://www.w3.org/2000/svg" viewBox="0 0 1200 675" role="img" aria-labelledby="title desc">
  <title id="title">편집 가능한 문서 엔진</title>
  <desc id="desc">표, 수식, 그림 요소가 하나의 편집 가능한 문서로 조립되는 모습</desc>
  <defs><linearGradient id="bg" x2="1" y2="1"><stop stop-color="#eef5ff"/><stop offset="1" stop-color="#d8e8ff"/></linearGradient><filter id="s"><feDropShadow dy="18" stdDeviation="20" flood-color="#46668f" flood-opacity=".2"/></filter></defs>
  <rect width="1200" height="675" rx="34" fill="url(#bg)"/>
  <g opacity=".5" fill="#77a9f4"><circle cx="108" cy="98" r="6"/><circle cx="143" cy="98" r="6"/><circle cx="178" cy="98" r="6"/></g>
  <g filter="url(#s)"><path d="M392 70h322l142 142v392H392z" fill="#fff"/><path d="M714 70v142h142" fill="#cfe0fb"/></g>
  <g fill="none" stroke="#0759ed" stroke-linecap="round" stroke-linejoin="round">
    <path d="M468 172h174M468 213h120" stroke-width="14"/>
    <rect x="468" y="270" width="204" height="126" rx="7" stroke-width="5"/><path d="M468 312h204M536 270v126M604 270v126" stroke-width="3" opacity=".55"/>
    <path d="M476 468c32-45 62-53 91-18s52 44 91-10" stroke-width="6"/><path d="M478 525h173" stroke-width="4" opacity=".35"/>
  </g>
  <g fill="#0759ed"><circle cx="268" cy="240" r="54" opacity=".1"/><path d="M242 241h52M268 215v52" stroke="#0759ed" stroke-width="8" stroke-linecap="round"/><circle cx="1000" cy="398" r="54" opacity=".1"/><path d="M973 398h54M1000 371v54" stroke="#0759ed" stroke-width="8" stroke-linecap="round"/></g>
  <g fill="none" stroke="#6f99d7" stroke-width="3" stroke-dasharray="9 12"><path d="M322 240h95"/><path d="M783 398h163"/></g>
</svg>
