<svg xmlns="http://www.w3.org/2000/svg" viewBox="0 0 1200 675" role="img" aria-labelledby="title desc">
  <title id="title">모델 라우팅</title>
  <desc id="desc">한 요청이 여러 생성 모델과 공통 출력 계약으로 연결되는 구조</desc>
  <defs><linearGradient id="bg" x2="1" y2="1"><stop stop-color="#f2f6ff"/><stop offset="1" stop-color="#e8effc"/></linearGradient><filter id="s"><feDropShadow dy="15" stdDeviation="20" flood-color="#49658d" flood-opacity=".15"/></filter></defs>
  <rect width="1200" height="675" rx="34" fill="url(#bg)"/>
  <g fill="none" stroke="#8faad0" stroke-width="4"><path d="M289 337h164M747 337h164"/><path d="M747 337q70 0 70-160h94M747 337q70 0 70 160h94"/></g>
  <g filter="url(#s)"><rect x="80" y="252" width="209" height="170" rx="28" fill="#fff"/><rect x="453" y="211" width="294" height="252" rx="34" fill="#0759ed"/><rect x="911" y="91" width="209" height="170" rx="28" fill="#fff"/><rect x="911" y="252" width="209" height="170" rx="28" fill="#fff"/><rect x="911" y="413" width="209" height="170" rx="28" fill="#fff"/></g>
  <g fill="none" stroke-linecap="round" stroke-linejoin="round"><path d="M129 307h111M129 337h78M129 367h96" stroke="#0759ed" stroke-width="8"/><circle cx="600" cy="337" r="67" stroke="#fff" stroke-width="9"/><path d="M600 289v96M552 337h96" stroke="#fff" stroke-width="9"/><g stroke="#0759ed" stroke-width="7"><circle cx="1015" cy="176" r="40"/><path d="M987 176h56M1015 148v56"/><path d="M974 314h82v46h-82zM994 378h42"/><path d="M973 473h84M973 504h62M973 535h75"/></g></g>
</svg>
